<svg xmlns="http://www.w3.org/2000/svg" width="1160" height="660" viewBox="0 0 1160 660" fill="none" role="img" aria-labelledby="title desc"><title id="title">RepriceMax — full-stack development contributions</title><desc id="desc">RepriceMax — full-stack development contributions. Amazon SP-API integration covering listings, orders, inventory, and settlements. Co-developed a repricing engine with configurable rules and minimum/maximum limits. Developed listings and strategies end-to-end, and contributed to migration from MVC to React and TypeScript. Contributed SQL Server database design and wrote a collection-to-application stored procedure that reduced transfer time to seconds. Built reporting and exports covering listing performance, sales, margins, and CSV exports stored in Amazon S3. Coordinated technical requirements and discussions with partners. This is a map of contributions, not a system architecture or sequence.</desc><rect x=".5" y=".5" width="1159" height="659" rx="8" fill="#101720" stroke="#273341"/><g font-family="'Segoe UI', Arial, sans-serif"><g font-family="Consolas, 'Liberation Mono', monospace"><text x="38" y="34" font-size="14" fill="#91A3B8" letter-spacing="1.2">01 / SELECTED WORK</text></g><text x="36" y="94" font-size="44" fill="#E9EFF6" font-weight="650" letter-spacing="-1.3">RepriceMax</text><text x="38" y="132" font-size="24" fill="#91A3B8" >Full-stack development</text><g font-family="Consolas, 'Liberation Mono', monospace"><text x="1100" y="43" font-size="14" fill="#68A9FF" letter-spacing="1.2" text-anchor="end">MY CONTRIBUTIONS</text></g><rect x="38" y="165" width="350" height="222" rx="5" stroke="#273341"/><g transform="translate(213 214) scale(1.2)" fill="none" stroke="#68A9FF" stroke-width="2" stroke-linecap="round" stroke-linejoin="round"><rect x="-18" y="-13" width="24" height="26" rx="3"/><path d="M-10-13V-20H-2V-13M-10 13V20H-2V13M6-6H15V-14H22M6 6H15V14H22"/><circle cx="25" cy="-14" r="3"/><circle cx="25" cy="14" r="3"/></g><text x="213" y="270" font-size="23" fill="#E9EFF6" font-weight="600" text-anchor="middle">Amazon SP-API</text><text x="213" y="309" font-size="18" fill="#91A3B8" text-anchor="middle">Listings · orders</text><text x="213" y="336" font-size="18" fill="#91A3B8" text-anchor="middle">Inventory · settlements</text><rect x="405" y="165" width="350" height="222" rx="5" stroke="#273341"/><g transform="translate(580 214) scale(1.2)" fill="none" stroke="#68A9FF" stroke-width="2" stroke-linecap="round" stroke-linejoin="round"><path d="M-22-15H22M-22 0H22M-22 15H22"/><rect x="-10" y="-20" width="8" height="10" rx="1" fill="#101720"/><rect x="8" y="-5" width="8" height="10" rx="1" fill="#101720"/><rect x="-14" y="10" width="8" height="10" rx="1" fill="#101720"/></g><text x="580" y="270" font-size="23" fill="#E9EFF6" font-weight="600" text-anchor="middle">Repricing engine</text><text x="580" y="309" font-size="18" fill="#91A3B8" text-anchor="middle">Co-developed configurable rules</text><text x="580" y="336" font-size="18" fill="#91A3B8" text-anchor="middle">Min/max price limits</text><rect x="772" y="165" width="350" height="222" rx="5" stroke="#273341"/><g transform="translate(947 214) scale(1.2)" fill="none" stroke="#68A9FF" stroke-width="2" stroke-linecap="round" stroke-linejoin="round"><rect x="-24" y="-19" width="48" height="38" rx="4"/><path d="M-24-8H24M-9-1-15 5-9 11M9-1 15 5 9 11M2-3-2 13"/><circle cx="-17" cy="-14" r=".8" fill="#68A9FF"/></g><text x="947" y="270" font-size="23" fill="#E9EFF6" font-weight="600" text-anchor="middle">Full-stack features</text><text x="947" y="309" font-size="18" fill="#91A3B8" text-anchor="middle">Listings &amp; strategies end-to-end</text><text x="947" y="336" font-size="18" fill="#91A3B8" text-anchor="middle">MVC → React + TypeScript migration</text><rect x="38" y="407" width="350" height="222" rx="5" stroke="#273341"/><g transform="translate(213 456) scale(1.2)" fill="none" stroke="#68A9FF" stroke-width="2" stroke-linecap="round" stroke-linejoin="round"><ellipse cy="-14" rx="22" ry="8"/><path d="M-22-14V14C-22 25 22 25 22 14V-14M-22 0C-22 11 22 11 22 0"/></g><text x="213" y="512" font-size="23" fill="#E9EFF6" font-weight="600" text-anchor="middle">SQL Server</text><text x="213" y="551" font-size="18" fill="#91A3B8" text-anchor="middle">Contributed database design</text><text x="213" y="578" font-size="18" fill="#91A3B8" text-anchor="middle">Collection → app stored procedure</text><text x="213" y="605" font-size="18" fill="#91A3B8" text-anchor="middle">Transfer reduced to seconds</text><rect x="405" y="407" width="350" height="222" rx="5" stroke="#273341"/><g transform="translate(580 456) scale(1.2)" fill="none" stroke="#68A9FF" stroke-width="2" stroke-linecap="round" stroke-linejoin="round"><path d="M-21-22H7L20-9V22H-21ZM7-22V-9H20M-13 13V4M-4 13V-2M5 13V-7"/></g><text x="580" y="512" font-size="23" fill="#E9EFF6" font-weight="600" text-anchor="middle">Reporting &amp; exports</text><text x="580" y="551" font-size="18" fill="#91A3B8" text-anchor="middle">Listing performance · sales · margins</text><text x="580" y="578" font-size="18" fill="#91A3B8" text-anchor="middle">CSV exports in Amazon S3</text><rect x="772" y="407" width="350" height="222" rx="5" stroke="#273341"/><g transform="translate(947 456) scale(1.2)" fill="none" stroke="#68A9FF" stroke-width="2" stroke-linecap="round" stroke-linejoin="round"><path d="M-24-19H8V5H-9L-18 14V5H-24ZM15-8H24V20H15V27L6 20H-8V12"/><path d="M-16-10H0M-16-3H-4"/></g><text x="947" y="512" font-size="23" fill="#E9EFF6" font-weight="600" text-anchor="middle">Partner coordination</text><text x="947" y="551" font-size="18" fill="#91A3B8" text-anchor="middle">Technical requirements</text><text x="947" y="578" font-size="18" fill="#91A3B8" text-anchor="middle">Discussions with partners</text></g></svg>
